<?xml version="1.0" encoding="UTF-8" standalone="no"?>
<!-- Created with Inkscape (http://www.inkscape.org/) -->

<svg
   version="1.1"
   id="svg1"
   width="172.17732"
   height="119.78133"
   viewBox="0 0 172.17732 119.78133"
   sodipodi:docname="Saints Document header (custom blue).svg"
   inkscape:version="1.3 (0e150ed6c4, 2023-07-21)"
   xmlns:inkscape="http://www.inkscape.org/namespaces/inkscape"
   xmlns:sodipodi="http://sodipodi.sourceforge.net/DTD/sodipodi-0.dtd"
   xmlns="http://www.w3.org/2000/svg"
   xmlns:svg="http://www.w3.org/2000/svg">
  <defs
     id="defs1">
    <clipPath
       clipPathUnits="userSpaceOnUse"
       id="clipPath72">
      <path
         d="M 0,0 H 577 V 103 H 0 Z"
         id="path72" />
    </clipPath>
  </defs>
  <sodipodi:namedview
     id="namedview1"
     pagecolor="#505050"
     bordercolor="#eeeeee"
     borderopacity="1"
     inkscape:showpageshadow="0"
     inkscape:pageopacity="0"
     inkscape:pagecheckerboard="0"
     inkscape:deskcolor="#505050"
     inkscape:zoom="1.4583333"
     inkscape:cx="186.51429"
     inkscape:cy="68.228573"
     inkscape:window-width="1680"
     inkscape:window-height="987"
     inkscape:window-x="0"
     inkscape:window-y="0"
     inkscape:window-maximized="0"
     inkscape:current-layer="g1"
     inkscape:export-bgcolor="#ffffff00" />
  <g
     id="g1"
     inkscape:groupmode="layer"
     inkscape:label="1"
     transform="translate(-58.061146,-192.19505)">
    <path
       id="path14"
       d="m 58.545143,267.11638 c 0.05733,-0.70266 0.105334,-2.728 0.114667,-4.49466 l 0.01067,-3.21334 0.865333,-0.27066 c 0.478667,-0.14534 1.186667,-0.328 1.577333,-0.412 0.928,-0.18667 2.562667,-0.59334 3.458667,-0.864 0.984,-0.292 5.281333,-1.42134 5.901333,-1.552 0.281333,-0.0573 1.333333,-0.328 2.344,-0.604 3.864,-1.06267 5.64,-1.50534 6.036,-1.50534 0.401333,0 0.410666,-0.0933 0.276,-4.09866 -0.07333,-2.256 -0.172,-4.14134 -0.213334,-4.19334 -0.068,-0.0827 -3.250666,0.276 -6.302666,0.71334 -3.765333,0.53733 -6.473333,0.76133 -8.14,0.672 -1.598666,-0.0827 -1.989333,-0.19734 -3.052,-0.896 -1.318666,-0.85867 -2.652,-2.61467 -2.86,-3.75467 -0.068,-0.38 -0.208,-0.688 -0.312,-0.688 -0.109333,0 -0.188,-2.89067 -0.188,-6.97867 0,-4.48933 0.07333,-6.97866 0.202667,-6.97866 0.114667,0 0.204,-0.19867 0.204,-0.44267 0,-0.672 1.353333,-3.26133 2.134667,-4.08933 0.385333,-0.40667 1.042666,-0.95334 1.469333,-1.224 0.421333,-0.26534 0.817333,-0.54667 0.874667,-0.62 0.469333,-0.63467 2.291999,-0.72934 14.193333,-0.72934 11.139999,0 12.431999,0.0427 12.546666,0.39067 0.188,0.58933 0.145333,6.912 -0.04667,7.05733 -0.09467,0.068 -3.641333,0.188 -7.885333,0.26134 -10.104,0.17733 -12.958666,0.328 -13.146666,0.68133 -0.12,0.23467 -0.01067,8.272 0.114666,8.43867 0.02133,0.0253 2.734667,-0.0627 6.032,-0.19334 7.432,-0.29733 8.437333,-0.292 9.457333,0.036 0.448,0.14667 1.021334,0.324 1.272,0.396 0.249334,0.0733 0.457334,0.22934 0.457334,0.34934 0,0.12 0.141333,0.21866 0.313333,0.21866 0.593333,0 1.457333,0.82267 2.738667,2.62 0.250666,0.34934 0.318666,1.57334 0.370666,6.80134 0.04133,4.152 -0.01067,6.58933 -0.152,6.98533 -0.390666,1.104 -1.202666,2.416 -2.025333,3.28667 -0.265333,0.28133 -0.593333,0.63466 -0.729333,0.79066 -0.64,0.74 -3.568,2.19867 -4.098667,2.04267 -0.07867,-0.0213 -0.193333,0.0613 -0.261333,0.18667 -0.06667,0.12533 -0.670667,0.344 -1.342667,0.48933 -0.672,0.14667 -1.589333,0.39067 -2.037333,0.548 -1.218667,0.42133 -2.041333,0.66667 -4.172,1.24933 -1.061333,0.292 -2.114667,0.62 -2.337333,0.724 -0.224,0.10934 -0.682667,0.25467 -1.021334,0.33334 -0.333333,0.0733 -1.478666,0.42666 -2.541333,0.776 -2.614667,0.864 -3.338667,1.07333 -4.885333,1.39066 -0.729333,0.15067 -1.370667,0.33867 -1.422667,0.42667 -0.05733,0.084 -0.650666,0.292 -1.322666,0.46933 -0.672,0.172 -1.432,0.41067 -1.693334,0.536 -0.806666,0.38 -0.88,0.28134 -0.776,-1.068 z m 159.573327,-2.33333 c -0.672,-0.19733 -1.40666,-0.44267 -1.63066,-0.54667 -0.224,-0.104 -1.04667,-0.37466 -1.828,-0.59333 -1.44267,-0.412 -2.02534,-0.59333 -3.86934,-1.19733 l -1.016,-0.33867 v -33.5 l -5.552,-0.0627 -5.552,-0.068 0.11467,-7.45866 h 31.33867 l 0.11466,8.448 h -10.864 l 0.12934,17.74533 c 0.068,9.76 0.0627,17.78667 -0.016,17.83867 -0.0827,0.052 -0.69734,-0.068 -1.36934,-0.26667 z m -125.051994,-18.676 c 0.01067,-8.224 0.088,-13.21867 0.229333,-13.93333 0.265333,-1.364 1.202667,-3.932 1.432,-3.932 0.09333,0 0.166667,-0.11467 0.166667,-0.25467 0,-0.74533 3.437333,-4.672 4.964,-5.66667 2.161334,-1.412 2.197334,-1.41733 13.068004,-1.42266 h 9.99466 l 0.672,0.548 c 0.36934,0.30666 0.864,0.864 1.09867,1.244 0.416,0.67733 0.42666,0.94266 0.52533,16.16133 0.0573,8.51067 0.0733,15.604 0.032,15.77067 -0.052,0.21866 -1.26133,0.31333 -4.57866,0.36533 -2.47867,0.0413 -4.85334,0.0307 -5.27067,-0.016 l -0.76533,-0.0827 v -12.44266 h -11.19334 v 14.09866 l -1.984,0.536 c -3.103998,0.844 -5.942664,1.50534 -7.223998,1.68267 l -1.177333,0.16133 z m 21.568004,-14.68267 v -3.67733 h -4.57867 c -2.916,0 -4.57733,0.0933 -4.57733,0.25067 0,0.12933 -0.12,0.244 -0.26667,0.244 -0.348,0 -1.21867,1.156 -1.52533,2.032 -0.136,0.37466 -0.24534,1.5 -0.24534,2.49466 0,1.468 0.068,1.864 0.36,2.06267 0.21334,0.15067 2.416,0.25467 5.59334,0.26 l 5.24,0.005 z m 73.91599,25.912 c -1.20266,-0.724 -1.80133,-1.37066 -4.776,-5.16266 -0.416,-0.536 -0.76,-1.01467 -0.76,-1.06667 0,-0.048 -0.344,-0.516 -0.76533,-1.032 -0.41733,-0.516 -1.26533,-1.63467 -1.88,-2.484 -1.24,-1.71333 -2.532,-3.44267 -3.76667,-5.036 -0.448,-0.57867 -1.11466,-1.464 -1.484,-1.964 -0.364,-0.5 -0.72933,-0.828 -0.812,-0.72933 -0.0787,0.0933 -0.19333,3.71866 -0.24533,8.052 -0.0987,7.69866 -0.11467,7.87466 -0.51067,7.81733 -1.61466,-0.23867 -6.94266,-1.192 -8.23866,-1.468 l -0.91734,-0.19867 -0.052,-15.05733 c -0.036,-11.64 0.0107,-15.192 0.208,-15.656 0.41734,-0.98933 1.75067,-1.91067 3.23467,-2.23467 2.33333,-0.50933 5.172,0.45867 6.136,2.084 0.23867,0.412 0.76,1.136 1.156,1.60934 0.39067,0.47333 1.07733,1.412 1.52533,2.08266 0.448,0.672 1.19867,1.69867 1.672,2.272 0.46934,0.57734 1.03734,1.33334 1.26134,1.676 0.224,0.344 1.224,1.688 2.224,2.99067 0.99466,1.30133 2.16666,2.88533 2.59866,3.51467 0.43734,0.63066 0.85867,1.15733 0.94267,1.16133 0.088,0.0107 0.16667,-3.64533 0.18667,-8.124 0.016,-4.48 0.048,-8.308 0.068,-8.51067 0.0267,-0.20266 0.0573,-0.50533 0.0733,-0.67733 0.0253,-0.24533 1.05733,-0.29733 4.74533,-0.24533 l 4.71334,0.0627 -0.0467,17.00534 c -0.048,17.652 -0.0533,17.72933 -0.876,18.88 -0.656,0.91733 -1.364,1.21866 -2.848,1.21466 -1.256,-0.005 -1.688,-0.12533 -2.76667,-0.776 z m -59.828,-6.38133 0.0573,-3.244 5.068,-0.052 c 2.78666,-0.0267 5.15066,-0.14667 5.24533,-0.26667 0.104,-0.11866 0.11867,-4.42666 0.0413,-9.92666 l -0.14133,-9.71867 h -10.73333 l 0.0573,-3.60933 0.0573,-3.61467 15.56667,-0.0413 c 8.56267,-0.0267 15.776,0.005 16.032,0.068 0.45733,0.10933 0.46267,0.14 0.40533,3.59333 l -0.0573,3.484 -5.18667,0.12 -5.19333,0.12533 -0.15067,9.552 c -0.0827,5.24934 -0.11466,9.672 -0.068,9.81734 0.052,0.17733 1.792,0.31733 5.188,0.412 2.80667,0.0827 5.19734,0.21866 5.312,0.30133 0.11467,0.084 0.204,1.428 0.204,3.19867 v 3.04666 h -31.76133 z"
       style="fill:#f0f0f0;fill-opacity:1;fill-rule:nonzero;stroke:none;stroke-width:1.33333"
       inkscape:export-filename="..\WEBSITE\SAINTSAFARIS\UI\src\assets\logo.svg"
       inkscape:export-xdpi="96"
       inkscape:export-ydpi="96" />
    <path
       id="path15"
       d="m 155.89447,288.61638 c -0.28666,3.10534 -0.604,6.224 -1.344,9.57334 l 14.636,0.47466 5.30134,-10.048 z"
       style="fill:#f0f0f0;fill-opacity:1;fill-rule:nonzero;stroke:none;stroke-width:1.33333" />
    <path
       id="path16"
       d="m 150.76914,288.52305 -13.984,0.0933 c 0.0627,3.41734 0.29733,6.75067 1.39067,9.66667 l 11.464,0.14133 c 1.104,-3.14133 1.16666,-6.51066 1.12933,-9.90133 z"
       style="fill:#f0f0f0;fill-opacity:1;fill-rule:nonzero;stroke:none;stroke-width:1.33333" />
    <path
       id="path17"
       d="m 132.22247,288.42972 -18.58799,0.14 c 1.42666,3.39066 3.01066,6.69866 5.12533,9.71333 5.08267,0.5 9.9,0.32933 14.63466,-0.0467 -0.39066,-3.27066 -0.78133,-6.536 -1.172,-9.80666 z"
       style="fill:#f0f0f0;fill-opacity:1;fill-rule:nonzero;stroke:none;stroke-width:1.33333" />
    <path
       id="path18"
       d="m 109.29048,288.56972 -10.292004,-0.0467 c 1.912004,3.58933 3.912004,7.14133 7.078664,10.23467 l 7.208,-0.14134 c -1.52133,-3.26533 -3.036,-6.53066 -3.99466,-10.04666 z"
       style="fill:#f0f0f0;fill-opacity:1;fill-rule:nonzero;stroke:none;stroke-width:1.33333" />
    <path
       id="path19"
       d="m 94.566476,288.61638 -2.432,-0.0467 c 0.973333,1.91733 2.385333,3.59466 4.516,4.88 -0.74,-1.58267 -1.557334,-3.12934 -2.084,-4.83334 z"
       style="fill:#f0f0f0;fill-opacity:1;fill-rule:nonzero;stroke:none;stroke-width:1.33333" />
    <path
       id="path20"
       d="m 116.49848,303.63772 -5.55734,-0.0933 c 2.77067,3.052 6.656,5.37467 11.16134,7.292 -2.03067,-2.396 -4.42667,-4.79733 -5.604,-7.19866 z"
       style="fill:#f0f0f0;fill-opacity:1;fill-rule:nonzero;stroke:none;stroke-width:1.33333" />
    <path
       id="path21"
       d="m 134.13447,303.44972 -12.42266,0.048 c 2.24533,3.09866 4.40666,6.23866 8.33866,8.47866 l 6.69334,-0.0467 c -1.14134,-3.12534 -1.92667,-5.86 -2.60934,-8.48 z"
       style="fill:#f0f0f0;fill-opacity:1;fill-rule:nonzero;stroke:none;stroke-width:1.33333" />
    <path
       id="path22"
       d="m 148.51447,303.49772 -9.688,0.0467 c 0.36534,2.72934 0.652,5.46267 1.912,8.192 l 6.036,0.14667 c 1.016,-2.79733 1.86534,-5.59467 1.74,-8.38533 z"
       style="fill:#f0f0f0;fill-opacity:1;fill-rule:nonzero;stroke:none;stroke-width:1.33333" />
    <path
       id="path23"
       d="m 153.68114,303.59105 c -0.464,3.14 -1.364,5.80667 -2.52133,8.192 l 6.69333,0.19333 c 2.97867,-2.29733 5.80133,-4.912 8.208,-8.33866 z"
       style="fill:#f0f0f0;fill-opacity:1;fill-rule:nonzero;stroke:none;stroke-width:1.33333" />
    <path
       id="path24"
       d="m 177.09314,303.49772 -5.47467,-0.052 c -1.80666,2.92666 -3.97866,5.176 -6.12533,7.48933 4.552,-1.68267 8.66133,-3.876 11.6,-7.43733 z"
       style="fill:#f0f0f0;fill-opacity:1;fill-rule:nonzero;stroke:none;stroke-width:1.33333" />
    <path
       id="path25"
       d="m 188.95181,288.76305 c -4.432,0 -10.25467,-0.19333 -10.25467,-0.19333 -1.12,3.66666 -2.52133,6.88 -3.86533,10.188 l 7.38533,-0.14134 c 2.83867,-2.96266 4.80267,-6.4 6.73467,-9.85333 z"
       style="fill:#f0f0f0;fill-opacity:1;fill-rule:nonzero;stroke:none;stroke-width:1.33333" />
    <path
       id="path26"
       d="m 195.59314,288.42972 -2.21467,0.0933 c -0.33333,2 -1.38,3.412 -2.124,5.068 1.62934,-1.40667 3.47334,-2.44267 4.33867,-5.16133 z"
       style="fill:#f0f0f0;fill-opacity:1;fill-rule:nonzero;stroke:none;stroke-width:1.33333" />
    <path
       id="path27"
       d="m 168.27447,238.09638 c 0.31334,0 0.56267,-0.276 0.56267,-0.62 0,-0.344 -0.24933,-0.62 -0.56267,-0.62 -0.30666,0 -0.55733,0.276 -0.55733,0.62 0,0.344 0.25067,0.62 0.55733,0.62 z m 0,-0.256 c -0.18666,0 -0.33866,-0.16666 -0.33866,-0.36933 0,-0.208 0.152,-0.37467 0.33866,-0.37467 0.188,0 0.344,0.16667 0.344,0.37467 0,0.20267 -0.156,0.36933 -0.344,0.36933 z"
       style="fill:#f0f0f0;fill-opacity:1;fill-rule:nonzero;stroke:none;stroke-width:1.33333" />
    <path
       id="path28"
       d="m 168.31714,239.48172 c 0.952,0 1.724,-0.92267 1.724,-2.052 0,-1.12534 -0.77733,-2.04134 -1.72933,-2.04134 -0.95334,0.004 -1.724,0.916 -1.724,2.04667 v 0.005 c 0.005,1.12934 0.776,2.04667 1.72933,2.04134 z m -0.005,-0.17734 c -0.83867,0.005 -1.516,-0.83333 -1.52134,-1.86933 v -0.005 c 0,-1.03734 0.67734,-1.87467 1.516,-1.87467 0.83334,0 1.51067,0.83733 1.51467,1.87467 0,1.03066 -0.676,1.87466 -1.50933,1.87466 z"
       style="fill:#f0f0f0;fill-opacity:1;fill-rule:nonzero;stroke:none;stroke-width:1.33333" />
    <path
       id="path29"
       d="m 132.09314,215.55505 c 0.28533,-3.10533 0.604,-6.224 1.348,-9.57333 l -14.64,-0.47467 -5.29733,10.048 z"
       style="fill:#f0f0f0;fill-opacity:1;fill-rule:nonzero;stroke:none;stroke-width:1.33333" />
    <path
       id="path30"
       d="m 137.21714,215.64838 13.98533,-0.0933 c -0.0627,-3.41733 -0.292,-6.75067 -1.38533,-9.66667 l -11.46933,-0.14133 c -1.104,3.14133 -1.16667,6.51067 -1.13067,9.90133 z"
       style="fill:#f0f0f0;fill-opacity:1;fill-rule:nonzero;stroke:none;stroke-width:1.33333" />
    <path
       id="path31"
       d="m 155.76381,215.74172 18.58933,-0.14 c -1.42667,-3.39067 -3.00533,-6.69867 -5.12533,-9.71334 -5.08267,-0.5 -9.896,-0.32933 -14.63467,0.0467 0.39067,3.27067 0.78133,6.536 1.17067,9.80667 z"
       style="fill:#f0f0f0;fill-opacity:1;fill-rule:nonzero;stroke:none;stroke-width:1.33333" />
    <path
       id="path32"
       d="m 178.69714,215.60172 10.296,0.0467 c -1.916,-3.58933 -3.916,-7.14133 -7.08267,-10.23466 l -7.208,0.14133 c 1.52,3.26533 3.04134,6.53067 3.99467,10.04667 z"
       style="fill:#f0f0f0;fill-opacity:1;fill-rule:nonzero;stroke:none;stroke-width:1.33333" />
    <path
       id="path33"
       d="m 193.42114,215.55505 2.432,0.0467 c -0.97467,-1.91734 -2.38533,-3.59467 -4.516,-4.88 0.74,1.58266 1.56267,3.124 2.084,4.83333 z"
       style="fill:#f0f0f0;fill-opacity:1;fill-rule:nonzero;stroke:none;stroke-width:1.33333" />
    <path
       id="path34"
       d="m 171.48781,200.53372 5.55733,0.0933 c -2.77067,-3.052 -6.65067,-5.37467 -11.16133,-7.296 2.032,2.4 4.428,4.80133 5.604,7.20267 z"
       style="fill:#f0f0f0;fill-opacity:1;fill-rule:nonzero;stroke:none;stroke-width:1.33333" />
    <path
       id="path35"
       d="m 153.85314,200.72172 12.42133,-0.048 c -2.244,-3.09867 -4.40533,-6.23867 -8.33866,-8.47867 l -6.68667,0.0467 c 1.14,3.12533 1.92667,5.86 2.604,8.48 z"
       style="fill:#f0f0f0;fill-opacity:1;fill-rule:nonzero;stroke:none;stroke-width:1.33333" />
    <path
       id="path36"
       d="m 139.47847,200.67372 9.68667,-0.0467 c -0.364,-2.72933 -0.65067,-5.46267 -1.91067,-8.192 l -6.04266,-0.14667 c -1.01467,2.79734 -1.864,5.59467 -1.73334,8.38534 z"
       style="fill:#f0f0f0;fill-opacity:1;fill-rule:nonzero;stroke:none;stroke-width:1.33333" />
    <path
       id="path37"
       d="m 134.30647,200.58038 c 0.46267,-3.14 1.364,-5.80666 2.52,-8.192 l -6.68666,-0.19333 c -2.98534,2.29733 -5.80267,4.912 -8.20933,8.33867 z"
       style="fill:#f0f0f0;fill-opacity:1;fill-rule:nonzero;stroke:none;stroke-width:1.33333" />
    <path
       id="path38"
       d="m 110.89981,200.67372 5.46933,0.048 c 1.80667,-2.92267 3.984,-5.172 6.124,-7.48534 -4.54666,1.68267 -8.66133,3.876 -11.59333,7.43734 z"
       style="fill:#f0f0f0;fill-opacity:1;fill-rule:nonzero;stroke:none;stroke-width:1.33333" />
    <path
       id="path39"
       d="m 99.041142,215.40838 c 4.431998,0 10.249338,0.19334 10.249338,0.19334 1.12533,-3.66667 2.52666,-6.88 3.864,-10.188 l -7.38534,0.14133 c -2.83866,2.96267 -4.796,6.4 -6.727998,9.85333 z"
       style="fill:#f0f0f0;fill-opacity:1;fill-rule:nonzero;stroke:none;stroke-width:1.33333" />
    <path
       id="path40"
       d="m 92.394476,215.74172 2.213333,-0.0933 c 0.333333,-2 1.385333,-3.412 2.130667,-5.07333 -1.630667,1.40667 -3.478667,2.448 -4.344,5.16667 z"
       style="fill:#f0f0f0;fill-opacity:1;fill-rule:nonzero;stroke:none;stroke-width:1.33333" />
    <text
       id="text40"
       xml:space="preserve"
       transform="scale(0.93609811,1.0682641)"
       x="150.86548"
       y="263.95807"
       style="font-size:17.0922px;fill:#f0f0f0;fill-opacity:1;stroke-width:1.42435"><tspan
         style="font-variant:normal;font-weight:700;font-size:12.4759px;font-family:Roboto;writing-mode:lr-tb;fill:#f0f0f0;fill-opacity:1;fill-rule:nonzero;stroke:none;stroke-width:1.42435"
         x="150.86548 159.0528 165.26637 172.93588 181.33031 186.99252 195.38695 203.34886 206.98564 214.65515 217.76195 223.2701 230.98834 238.36038"
         y="263.95807"
         sodipodi:role="line"
         id="tspan40">&amp; SAFARIS LTD.</tspan></text>
    <path
       id="path41"
       d="m 130.77447,270.54438 c 1.34934,-0.38 2.47467,-0.27066 3.25067,0.59867 l 0.97867,1.104 c 1.68266,1 1.93733,2.17733 1.5,3.44267 -0.51067,0.92266 -1.312,1.724 -2.47867,2.37466 l 0.276,0.33334 2.66667,-0.70267 0.12,-0.76533 0.30666,-0.80267 0.156,1.73467 -5.552,1.708 -0.18133,0.66666 c 0.25467,1.21334 0.29067,2.30267 -0.21467,2.876 -1.06133,1.17067 -2.40533,1.312 -3.80133,0.604 -0.53733,-0.172 -0.756,-1.896 -0.396,-1.808 -0.25067,-0.0987 -1.38,-0.468 -1.38,-0.468 l -2.36,2.00534 -9.41066,2.50933 c -0.36,0.88133 -1.02134,1.64667 -1.87067,1.636 -1.28133,0.33867 -2.348,-0.59333 -2.51467,-1.20267 -0.24533,-0.73466 -0.18266,-1.428 0.30667,-2.07333 l -3.21867,0.16667 0.0307,0.93733 c -0.30667,0.448 -0.61333,0.51067 -0.92133,0.068 l -0.18267,-0.77067 -4.16667,0.33334 -0.0627,0.70266 c -0.208,0.0987 -0.42134,0.23467 -0.552,-0.0987 l -0.0933,-0.53734 -11.338664,0.93867 -0.182667,-1.40667 0.553334,1.00534 20.561337,-2.912 -1.61867,-8.62534 0.21333,-0.468 0.396,0.104 2.94267,7.052 0.432,0.0987 11.984,-7.52 c 1.83866,-1.12 3.45333,-2.62533 5.82266,-2.83867 z"
       style="fill:#f0f0f0;fill-opacity:1;fill-rule:nonzero;stroke:none;stroke-width:1.33333" />
    <path
       id="path42"
       d="m 134.00381,271.29372 -0.328,0.10933 0.532,0.90667 0.50933,-0.12 z"
       style="fill:#f0f0f0;fill-opacity:1;fill-rule:nonzero;stroke:none;stroke-width:1.33333" />
    <path
       id="path43"
       d="m 133.35847,271.52305 -1.10933,0.016 -0.016,1.24 0.932,-0.0627 0.58933,-0.38 z"
       style="fill:#f0f0f0;fill-opacity:1;fill-rule:nonzero;stroke:none;stroke-width:1.33333" />
    <path
       id="path44"
       d="m 131.86914,271.88305 0.0613,1.35333 -1.09333,0.032 v -1.308 z"
       style="fill:#f0f0f0;fill-opacity:1;fill-rule:nonzero;stroke:none;stroke-width:1.33333" />
    <path
       id="path45"
       d="m 130.34247,272.05505 0.0787,1.416 -1,0.32267 0.12,-1.42134 z"
       style="fill:#f0f0f0;fill-opacity:1;fill-rule:nonzero;stroke:none;stroke-width:1.33333" />
    <path
       id="path46"
       d="m 122.47314,276.32572 0.02,0.95733 0.20934,-0.15067 -0.048,-0.932 z"
       style="fill:#f0f0f0;fill-opacity:1;fill-rule:nonzero;stroke:none;stroke-width:1.33333" />
    <path
       id="path47"
       d="m 123.10248,276.00305 0.0267,0.952 0.12534,-0.0773 -0.0267,-0.94267 z"
       style="fill:#f0f0f0;fill-opacity:1;fill-rule:nonzero;stroke:none;stroke-width:1.33333" />
    <path
       id="path48"
       d="m 123.59314,275.71638 -0.18266,0.172 0.088,0.88 0.18266,-0.084 z"
       style="fill:#f0f0f0;fill-opacity:1;fill-rule:nonzero;stroke:none;stroke-width:1.33333" />
    <path
       id="path49"
       d="m 123.88381,275.60172 0.068,0.85866 0.17733,-0.0467 -0.12533,-0.88 z"
       style="fill:#f0f0f0;fill-opacity:1;fill-rule:nonzero;stroke:none;stroke-width:1.33333" />
    <path
       id="path50"
       d="m 124.31181,275.42438 0.0307,0.864 0.136,-0.11866 -0.0373,-0.844 z"
       style="fill:#f0f0f0;fill-opacity:1;fill-rule:nonzero;stroke:none;stroke-width:1.33333" />
    <path
       id="path51"
       d="m 124.67048,275.15905 0.068,0.95733 0.11466,-0.0933 -0.0213,-0.932 z"
       style="fill:#f0f0f0;fill-opacity:1;fill-rule:nonzero;stroke:none;stroke-width:1.33333" />
    <path
       id="path52"
       d="m 125.24381,274.69505 -0.208,0.19733 0.0413,0.944 0.22933,-0.19333 z"
       style="fill:#f0f0f0;fill-opacity:1;fill-rule:nonzero;stroke:none;stroke-width:1.33333" />
    <path
       id="path53"
       d="m 125.48381,274.65905 0.20266,-0.24533 0.0933,1.068 -0.23467,0.13466 z"
       style="fill:#f0f0f0;fill-opacity:1;fill-rule:nonzero;stroke:none;stroke-width:1.33333" />
    <path
       id="path54"
       d="m 126.01981,274.04972 -0.15067,0.23333 0.0827,1.13067 0.292,-0.23467 z"
       style="fill:#f0f0f0;fill-opacity:1;fill-rule:nonzero;stroke:none;stroke-width:1.33333" />
    <path
       id="path55"
       d="m 122.25448,276.50305 0.0627,0.88533 -0.19333,0.124 -0.0213,-0.92666 0.13066,-0.12 z"
       style="fill:#f0f0f0;fill-opacity:1;fill-rule:nonzero;stroke:none;stroke-width:1.33333" />
    <path
       id="path56"
       d="m 121.72781,276.91372 -0.0107,0.74 0.10934,-0.084 -0.036,-0.724 z"
       style="fill:#f0f0f0;fill-opacity:1;fill-rule:nonzero;stroke:none;stroke-width:1.33333" />
    <path
       id="path57"
       d="m 120.46781,277.59105 -0.0213,0.812 0.136,-0.0773 c 0,0 0.068,-0.928 0.0307,-0.90134 -0.0413,0.0213 -0.15066,0.16667 -0.15066,0.16667 z"
       style="fill:#f0f0f0;fill-opacity:1;fill-rule:nonzero;stroke:none;stroke-width:1.33333" />
    <path
       id="path58"
       d="m 120.12914,277.91905 -0.14533,0.19333"
       style="fill:#f0f0f0;fill-opacity:1;fill-rule:nonzero;stroke:none;stroke-width:1.33333" />
    <path
       id="path59"
       d="m 120.06648,277.93505 -0.0413,0.73867 0.13467,-0.12934 -0.009,-0.76133 -0.1,0.19867 v -0.0267 z"
       style="fill:#f0f0f0;fill-opacity:1;fill-rule:nonzero;stroke:none;stroke-width:1.33333" />
    <path
       id="path60"
       d="m 119.67581,278.10705 -0.0107,0.552 0.136,-0.0787 -0.052,-0.5 -0.084,-0.016 z"
       style="fill:#f0f0f0;fill-opacity:1;fill-rule:nonzero;stroke:none;stroke-width:1.33333" />
    <path
       id="path61"
       d="m 119.18648,278.32038 0.0573,0.69734 0.13067,-0.0573 -0.0373,-0.744 z"
       style="fill:#f0f0f0;fill-opacity:1;fill-rule:nonzero;stroke:none;stroke-width:1.33333" />
    <path
       id="path62"
       d="m 118.76381,278.54438 c 0.068,0.61467 0.16667,0.58267 0.16667,0.58267 l -0.15067,-0.624 -0.0307,0.009 z"
       style="fill:#f0f0f0;fill-opacity:1;fill-rule:nonzero;stroke:none;stroke-width:1.33333" />
    <path
       id="path63"
       d="m 118.27981,278.66972 v 0.75466 l 0.104,-0.0267"
       style="fill:#f0f0f0;fill-opacity:1;fill-rule:nonzero;stroke:none;stroke-width:1.33333" />
    <path
       id="path64"
       d="m 117.82114,278.94572 0.032,0.80133 0.18267,-0.0573 -0.0427,-0.81734 z"
       style="fill:#f0f0f0;fill-opacity:1;fill-rule:nonzero;stroke:none;stroke-width:1.33333" />
    <path
       id="path65"
       d="m 117.46781,279.11638 -0.0107,0.724 0.068,-0.036 -0.016,-0.74 z"
       style="fill:#f0f0f0;fill-opacity:1;fill-rule:nonzero;stroke:none;stroke-width:1.33333" />
    <path
       id="path66"
       d="m 116.16514,280.11238 -0.005,0.14 -0.0933,-0.17733 -0.016,0.63067 0.11466,-0.256 0.0987,0.256 -0.009,-0.828 z"
       style="fill:#f0f0f0;fill-opacity:1;fill-rule:nonzero;stroke:none;stroke-width:1.33333" />
    <path
       id="path67"
       d="m 115.62381,280.39238 0.016,0.59467 0.0413,-0.48 z"
       style="fill:#f0f0f0;fill-opacity:1;fill-rule:nonzero;stroke:none;stroke-width:1.33333" />
    <path
       id="path68"
       d="m 115.25448,280.66438 c -0.005,0.0467 -0.0627,0.34267 -0.0627,0.34267 l 0.0307,0.35467 0.032,-0.35867 z"
       style="fill:#f0f0f0;fill-opacity:1;fill-rule:nonzero;stroke:none;stroke-width:1.33333" />
    <path
       id="path69"
       d="m 114.89448,280.82038 -0.13467,0.244 -0.0373,0.0627 -0.0467,-0.072 -0.036,0.0933 -0.0987,-0.084 -0.0627,0.172 -0.136,-0.224 0.104,0.65734 -0.005,-0.45867 0.084,0.12 0.068,-0.17733 0.0773,0.0467 0.068,-0.0627 0.156,0.46933 z"
       style="fill:#f0f0f0;fill-opacity:1;fill-rule:nonzero;stroke:none;stroke-width:1.33333" />
    <path
       id="path70"
       d="m 113.71181,281.47638 0.0787,0.47867 0.005,-0.21867 0.328,0.0427 -0.19733,-0.0947 -0.084,-0.448 -0.0733,0.464 -0.296,-0.0213 c 0,0 0.19734,0.0267 0.21867,0.0467 0.02,0.016 0.02,-0.24934 0.02,-0.24934 z"
       style="fill:#f0f0f0;fill-opacity:1;fill-rule:nonzero;stroke:none;stroke-width:1.33333" />
    <path
       id="path71"
       d="m 112.68648,284.32572 c -0.312,0 -0.56267,0.276 -0.56267,0.62 0,0.34266 0.25067,0.624 0.56267,0.624 0.30666,0 0.56266,-0.28134 0.55733,-0.624 0,-0.344 -0.25067,-0.62 -0.55733,-0.62 z m 0,0.25466 c 0.188,0 0.33866,0.16667 0.33866,0.37467 0,0.204 -0.15066,0.376 -0.33866,0.376 -0.188,0 -0.344,-0.172 -0.344,-0.376 0,-0.208 0.156,-0.37467 0.344,-0.37467 z"
       style="fill:#f0f0f0;fill-opacity:1;fill-rule:nonzero;stroke:none;stroke-width:1.33333" />
    <g
       opacity="0.570637"
       id="g73"
       transform="translate(40.457144,183.08572)"
       style="fill:#f0f0f0;fill-opacity:1">
      <path
         d="m 54.141,74.891 c -0.715,0.004 -1.293,0.691 -1.293,1.539 0.004,0.847 0.582,1.531 1.297,1.531 0.714,0 1.293,-0.688 1.293,-1.535 v -0.004 c -0.004,-0.848 -0.583,-1.531 -1.297,-1.531 z m 0.007,0.132 c 0.625,0 1.137,0.625 1.137,1.403 v 0.004 c 0,0.777 -0.508,1.406 -1.133,1.406 -0.629,0.004 -1.136,-0.625 -1.136,-1.402 0,-0.778 0.504,-1.407 1.132,-1.411 z"
         style="fill:#f0f0f0;fill-opacity:1;fill-rule:nonzero;stroke:none"
         transform="scale(1.3333333)"
         clip-path="url(#clipPath72)"
         id="path73" />
    </g>
    <path
       id="path74"
       d="m 130.78514,279.86172 c -0.13067,0 -0.25467,0.0213 -0.37467,0.068 -0.708,0.26 -1.10933,1.17733 -0.896,2.04666 0.208,0.86934 0.948,1.364 1.656,1.104 0.704,-0.25466 1.104,-1.172 0.896,-2.04133 l -0.104,0.036 c 0.005,0.0107 0.005,0.016 0.0107,0.0267 l -1.172,0.432 1.172,-0.42667 c 0.18667,0.79067 -0.17733,1.62933 -0.82267,1.864 -0.64666,0.23467 -1.324,-0.21867 -1.516,-1.01067 -0.19333,-0.796 0.172,-1.62933 0.81734,-1.86933 0.636,-0.22933 1.308,0.20267 1.51066,0.984 l 0.104,-0.0413 c -0.172,-0.69734 -0.692,-1.17734 -1.28133,-1.172 z"
       style="fill:#f0f0f0;fill-opacity:1;fill-rule:nonzero;stroke:none;stroke-width:1.33333" />
    <path
       id="path75"
       d="m 130.73314,280.78838 c -0.292,0 -0.52533,0.28667 -0.52533,0.64134 0,0.35333 0.23333,0.64533 0.52533,0.64 0.292,0 0.52667,-0.28667 0.52667,-0.64 0,-0.35467 -0.23467,-0.64134 -0.52667,-0.64134 z m 0,0.104 c 0.25067,0 0.45867,0.24 0.45867,0.53734 0,0.30133 -0.204,0.54133 -0.45867,0.54133 -0.24933,0 -0.45867,-0.24 -0.45867,-0.54133 0,-0.29734 0.20934,-0.53734 0.45867,-0.53734 z"
       style="fill:#f0f0f0;fill-opacity:1;fill-rule:nonzero;stroke:none;stroke-width:1.33333" />
    <text
       id="text75"
       xml:space="preserve"
       transform="scale(0.93609811,1.0682641)"
       x="66.379196"
       y="263.75888"
       style="font-size:17.0922px;fill:#f0f0f0;fill-opacity:1;stroke-width:1.42435"><tspan
         style="font-variant:normal;font-weight:700;font-size:12.4759px;font-family:Roboto;writing-mode:lr-tb;fill:#f0f0f0;fill-opacity:1;fill-rule:nonzero;stroke:none;stroke-width:1.42435"
         x="66.379196 74.097443 82.059357 89.979698 98.136551 105.15424"
         y="263.75888"
         sodipodi:role="line"
         id="tspan75">TRAVEL</tspan></text>
  </g>
</svg>
